<svg width="4983" height="4985" viewBox="0 0 4983 4985" fill="none" xmlns="http://www.w3.org/2000/svg">
<mask id="mask0_60_4" style="mask-type:luminance" maskUnits="userSpaceOnUse" x="0" y="0" width="4983" height="4985">
<path d="M0 4984.56V0H4983V4984.56H0Z" fill="white"/>
</mask>
<g mask="url(#mask0_60_4)">
<path fill-rule="evenodd" clip-rule="evenodd" d="M4982.96 2490.72C4982.96 3868.02 3866.42 4984.56 2489.12 4984.56C1111.82 4984.56 -4.71484 3868.02 -4.71484 2490.72C-4.71484 1113.42 1111.82 -3.12 2489.12 -3.12C3866.42 -3.12 4982.96 1113.42 4982.96 2490.72Z" fill="#D5915B"/>
</g>
<path fill-rule="evenodd" clip-rule="evenodd" d="M3852.93 3893.51H1125.3C1017.75 3893.51 930.465 3807.55 930.465 3701.64V1972.09C930.465 1866.17 1017.75 1783.33 1125.3 1783.33H4047.76V3701.64C4047.76 3807.55 3960.48 3893.51 3852.93 3893.51Z" fill="#AE7A51"/>
<path fill-rule="evenodd" clip-rule="evenodd" d="M2489.11 1627.47H1125.3C1017.75 1627.47 930.465 1710.31 930.465 1816.22V3545.85C930.465 3651.68 1017.75 3737.64 1125.3 3737.64H3852.93C3960.48 3737.64 4047.76 3651.68 4047.76 3545.85V1627.47H2489.11Z" fill="#FFFFFE"/>
<path fill-rule="evenodd" clip-rule="evenodd" d="M4047.77 1435.67C4047.77 1329.76 3960.49 1243.8 3852.94 1243.8H2878.79C2771.24 1243.8 2683.95 1329.76 2683.95 1435.67C2683.95 1435.67 2658.63 1611.56 2489.12 1627.46H4047.77V1435.67Z" fill="#DEDECA"/>
</svg>
